<svg version="1.1" xmlns="http://www.w3.org/2000/svg" width="500" height="500"><g xmlns="http://www.w3.org/2000/svg" fill="none" fill-rule="nonzero" stroke="#000000" stroke-width="2" stroke-linecap="round" stroke-linejoin="round" stroke-miterlimit="10" stroke-dasharray="" stroke-dashoffset="0" font-family="none" font-weight="none" font-size="none" text-anchor="none" style="mix-blend-mode: normal"><path fill="none" stroke="#000000" d=""/><path fill="none" stroke="#000000" d="M219.78 20.36C221.94 20.36 224.44 20.39 226.74 20.39 227.85 20.39 228.92 20.12 229.9 19.78 233.21 18.65 234.45 14.16 232.01 11.55 230.18 9.6 227.26 9.83 224.84 9.83 223.15 9.83 221.46 9.83 219.78 9.83L219.78 29.43"/><path fill="none" stroke="#000000" d="M249.55 15.75L249.55 29.86"/><path fill="none" stroke="#000000" d="M249.55 18.77C247.95 16.51 245.13 14.87 241.66 16.2 239.43 17.05 238.15 18.81 237.58 21.11 236.82 24.15 238.36 27.54 241.01 29.11 244.33 31.08 247.87 29.27 249.55 26.83"/><path fill="none" stroke="#000000" d="M253.68 15.84L253.68 30.04"/><path fill="none" stroke="#000000" d="M253.68 21.7C254.06 20.56 254.47 19.3 255.13 18.27 255.67 17.41 256.39 16.69 257.25 16.29 258.69 15.62 260.6 15.84 261.43 17.49"/><path fill="none" stroke="#000000" d="M266.33 15.57L266.33 30.13"/><path fill="none" stroke="#000000" d="M265.62 11.24C265.62 10.81 265.97 10.45 266.41 10.45 266.85 10.45 267.2 10.81 267.2 11.24 267.2 11.68 266.85 12.04 266.41 12.04 265.97 12.04 265.62 11.68 265.62 11.24Z"/><path fill="none" stroke="#000000" d="M282.14 18.88C281.46 17.47 280.71 16.57 279.16 16.15 277.63 15.73 275.88 15.71 274.34 16.12 273.08 16.45 271.68 17.49 271.65 18.97 271.57 22.52 277.31 22.21 279.38 23.04 280.97 23.67 282.44 25.25 282.13 26.99 281.73 29.21 279.12 29.93 277.25 30.04 274.82 30.18 272.54 29.31 271.4 26.96"/><path fill="none" stroke="#000000" d="M173.5 40.06L173.5 60.27"/><path fill="none" stroke="#000000" d="M177.73 45.85C177.73 45.85 177.73 55.31 177.73 55.33 177.73 57.36 178.4 58.29 178.93 58.92 180.08 60.3 183.1 60.11 184.03 59.8 186.32 59.03 187.16 57.32 188.47 55.97"/><path fill="none" stroke="#000000" d="M188.47 45.85L188.47 60.01"/><path fill="none" stroke="#000000" d="M192.87 49.51C195.01 47.33 196.74 45.13 200.17 46.03 202.15 46.56 203.2 48.26 203.2 49.93L203.2 59.82"/><path fill="none" stroke="#000000" d="M192.58 45.97L192.58 59.82"/><path fill="none" stroke="#000000" d="M219.05 40.08L219.05 59.8"/><path fill="none" stroke="#000000" d="M219.1 48.92C217.55 46.69 214.82 45.09 211.46 46.39 209.29 47.23 208.05 48.96 207.5 51.21 206.76 54.2 208.25 57.53 210.82 59.07 214.04 61 217.47 59.22 219.1 56.83"/><path fill="none" stroke="#000000" d="M223.95 45.57L223.95 60.13"/><path fill="none" stroke="#000000" d="M223.24 41.24C223.24 40.81 223.59 40.45 224.03 40.45 224.47 40.45 224.83 40.81 224.83 41.24 224.83 41.68 224.47 42.04 224.03 42.04 223.59 42.04 223.24 41.68 223.24 41.24Z"/><path fill="none" stroke="#000000" d="M237.82 43.85C239.75 42.88 241.06 41.56 242.57 40.05L242.57 60.01"/><path fill="none" stroke="#000000" d="M246.46 40.11L259.77 40.11 250.26 60.07"/><path fill="none" stroke="#000000" d="M284.51 45.75L284.51 59.86"/><path fill="none" stroke="#000000" d="M284.51 48.77C282.92 46.51 280.1 44.87 276.63 46.2 274.4 47.05 273.11 48.81 272.54 51.11 271.79 54.15 273.32 57.54 275.97 59.11 279.29 61.08 282.84 59.27 284.51 56.83"/><path fill="none" stroke="#000000" d="M292.73 46.37C293.52 46.02 294.38 45.83 295.29 45.83 298.96 45.83 301.94 49.01 301.94 52.93 301.94 56.85 298.96 60.03 295.29 60.03 291.62 60.03 288.64 56.85 288.64 52.93 288.64 50.72 289.58 48.75 291.06 47.45 291.56 47.01 292.12 46.64 292.73 46.37"/><path fill="none" stroke="#000000" d="M306.04 45.67C306.04 45.67 306.04 55.14 306.04 55.16 306.04 57.18 306.71 58.12 307.24 58.75 308.39 60.13 311.41 59.94 312.34 59.62 314.63 58.85 315.47 57.15 316.78 55.79"/><path fill="none" stroke="#000000" d="M316.78 45.67L316.78 59.84"/><path fill="none" stroke="#000000" d="M314.49 42.58L311.23 39.33 307.96 42.58"/><path fill="none" stroke="#000000" d="M323.52 40.45C323.52 45.49 323.52 49.55 323.52 54.59 323.52 55.82 323.65 57.25 324.32 58.35 325.21 59.83 326.81 59.97 328.4 59.97"/><path fill="none" stroke="#000000" d="M320.59 46.3L327.42 46.3"/><path fill="none" stroke="#000000" d="M38.73 177.83c-1.19-0.69-2.72-0.28-3.4 0.94l-10 17.5c-0.69 1.2-0.27 2.73 0.94 3.4 0.39 0.22 0.81 0.33 1.23 0.33 0.86 0 1.7-0.45 2.17-1.27l10-17.5c0.69-1.19 0.27-2.72-0.94-3.4z m15 0c-1.19-0.69-2.72-0.28-3.4 0.94l-10 17.5c-0.69 1.2-0.27 2.73 0.94 3.4 0.39 0.22 0.81 0.33 1.23 0.33 0.86 0 1.7-0.45 2.17-1.27l10-17.5c0.69-1.19 0.27-2.72-0.94-3.4z m-30 0c-1.19-0.69-2.72-0.28-3.4 0.94l-10 17.5c-0.69 1.2-0.27 2.73 0.94 3.4 0.39 0.22 0.81 0.33 1.23 0.33 0.86 0 1.7-0.45 2.17-1.27l10-17.5c0.69-1.19 0.27-2.72-0.94-3.4z m60 0c-1.19-0.69-2.72-0.28-3.4 0.94l-10 17.5c-0.69 1.2-0.27 2.73 0.94 3.4 0.39 0.22 0.81 0.33 1.23 0.33 0.86 0 1.7-0.45 2.17-1.27l10-17.5c0.69-1.19 0.27-2.72-0.94-3.4z m-15 0c-1.19-0.69-2.72-0.28-3.4 0.94l-10 17.5c-0.69 1.2-0.27 2.73 0.94 3.4 0.39 0.22 0.81 0.33 1.23 0.33 0.86 0 1.7-0.45 2.17-1.27l10-17.5c0.69-1.19 0.27-2.72-0.94-3.4zM75 140c-0.09 0-0.17 0.03-0.25 0.03 0.17-0.81 0.25-1.66 0.25-2.53 0-6.91-5.59-12.5-12.5-12.5-3.84 0-7.23 1.77-9.53 4.5C50.06 123.88 44.27 120 37.5 120 27.84 120 20 127.83 20 137.5c0 1.14 0.13 2.23 0.33 3.31C14.34 142.78 10 148.36 10 155c0 8.28 6.72 15 15 15h50c8.28 0 15-6.72 15-15s-6.72-15-15-15z"/><path fill="none" stroke="#000000" d=""/><path fill="none" stroke="#000000" d="M40.8 211.39C41.83 210.87 42.53 210.16 43.33 209.36L43.33 220"/><path fill="none" stroke="#000000" d="M51.94 212.88C51.69 213.65 51.52 214.37 50.93 214.94 50.26 215.58 49.32 215.94 48.4 215.87 47.1 215.77 45.92 214.82 45.54 213.58 45.16 212.34 45.61 210.89 46.63 210.08 47.48 209.4 48.71 209.21 49.75 209.58 51.07 210.04 51.63 211.18 51.84 212.49 52.1 214.2 51.97 215.97 51.46 217.62 50.97 219.18 49.81 220.12 48.1 219.95 47.05 219.85 46.36 219.4 45.86 218.46"/><path fill="none" stroke="#000000" d="M54 210.8C54 209.8 54.82 208.98 55.82 208.98 56.83 208.98 57.65 209.8 57.65 210.8 57.65 211.81 56.83 212.63 55.82 212.63 54.82 212.63 54 211.81 54 210.8Z"/><path fill="none" stroke="#000000" d="M68.1 211.84C67.62 210.81 66.65 209.67 65.38 209.42 63.98 209.14 62.42 209.32 61.4 210.31 60.27 211.42 59.75 212.94 59.71 214.42 59.67 215.99 60.17 217.77 61.43 218.92 62.86 220.21 65.1 220.23 66.66 219.1 67.29 218.64 67.79 218.02 68.1 217.35"/><path fill="none" stroke="#000000" d="M168.73 177.83c-1.19-0.69-2.72-0.28-3.4 0.94l-10 17.5c-0.69 1.2-0.27 2.73 0.94 3.4 0.39 0.22 0.81 0.33 1.23 0.33 0.86 0 1.7-0.45 2.17-1.27l10-17.5c0.69-1.19 0.27-2.72-0.94-3.4z m15 0c-1.19-0.69-2.72-0.28-3.4 0.94l-10 17.5c-0.69 1.2-0.27 2.73 0.94 3.4 0.39 0.22 0.81 0.33 1.23 0.33 0.86 0 1.7-0.45 2.17-1.27l10-17.5c0.69-1.19 0.27-2.72-0.94-3.4z m-30 0c-1.19-0.69-2.72-0.28-3.4 0.94l-10 17.5c-0.69 1.2-0.27 2.73 0.94 3.4 0.39 0.22 0.81 0.33 1.23 0.33 0.86 0 1.7-0.45 2.17-1.27l10-17.5c0.69-1.19 0.27-2.72-0.94-3.4z m60 0c-1.19-0.69-2.72-0.28-3.4 0.94l-10 17.5c-0.69 1.2-0.27 2.73 0.94 3.4 0.39 0.22 0.81 0.33 1.23 0.33 0.86 0 1.7-0.45 2.17-1.27l10-17.5c0.69-1.19 0.27-2.72-0.94-3.4z m-15 0c-1.19-0.69-2.72-0.28-3.4 0.94l-10 17.5c-0.69 1.2-0.27 2.73 0.94 3.4 0.39 0.22 0.81 0.33 1.23 0.33 0.86 0 1.7-0.45 2.17-1.27l10-17.5c0.69-1.19 0.27-2.72-0.94-3.4zM205 140c-0.09 0-0.17 0.03-0.25 0.03 0.17-0.81 0.25-1.66 0.25-2.53 0-6.91-5.59-12.5-12.5-12.5-3.84 0-7.23 1.77-9.53 4.5C180.06 123.88 174.27 120 167.5 120 157.84 120 150 127.83 150 137.5c0 1.14 0.13 2.23 0.33 3.31C144.34 142.78 140 148.36 140 155c0 8.28 6.72 15 15 15h50c8.28 0 15-6.72 15-15s-6.72-15-15-15z"/><path fill="none" stroke="#000000" d=""/><path fill="none" stroke="#000000" d="M171.31 211.89C171.26 209.61 174.14 208.89 175.88 209.63 176.19 209.76 176.49 209.94 176.73 210.18 177.28 210.73 177.46 211.56 177.32 212.32 177.14 213.32 176.58 214.2 175.87 214.92L170.8 219.97 177.9 219.97"/><path fill="none" stroke="#000000" d="M179.92 211.39C180.95 210.87 181.65 210.16 182.45 209.36L182.45 220"/><path fill="none" stroke="#000000" d="M184.53 210.8C184.53 209.8 185.34 208.98 186.35 208.98 187.36 208.98 188.18 209.8 188.18 210.8 188.18 211.81 187.36 212.63 186.35 212.63 185.34 212.63 184.53 211.81 184.53 210.8Z"/><path fill="none" stroke="#000000" d="M198.63 211.84C198.15 210.81 197.18 209.67 195.9 209.42 194.51 209.14 192.95 209.32 191.93 210.31 190.8 211.42 190.28 212.94 190.24 214.42 190.2 215.99 190.7 217.77 191.96 218.92 193.39 220.21 195.63 220.23 197.18 219.1 197.82 218.64 198.31 218.02 198.63 217.35"/><path fill="none" stroke="#000000" d="M298.73 177.83c-1.19-0.69-2.72-0.28-3.4 0.94l-10 17.5c-0.69 1.2-0.27 2.73 0.94 3.4 0.39 0.22 0.81 0.33 1.23 0.33 0.86 0 1.7-0.45 2.17-1.27l10-17.5c0.69-1.19 0.27-2.72-0.94-3.4z m15 0c-1.19-0.69-2.72-0.28-3.4 0.94l-10 17.5c-0.69 1.2-0.27 2.73 0.94 3.4 0.39 0.22 0.81 0.33 1.23 0.33 0.86 0 1.7-0.45 2.17-1.27l10-17.5c0.69-1.19 0.27-2.72-0.94-3.4z m-30 0c-1.19-0.69-2.72-0.28-3.4 0.94l-10 17.5c-0.69 1.2-0.27 2.73 0.94 3.4 0.39 0.22 0.81 0.33 1.23 0.33 0.86 0 1.7-0.45 2.17-1.27l10-17.5c0.69-1.19 0.27-2.72-0.94-3.4z m60 0c-1.19-0.69-2.72-0.28-3.4 0.94l-10 17.5c-0.69 1.2-0.27 2.73 0.94 3.4 0.39 0.22 0.81 0.33 1.23 0.33 0.86 0 1.7-0.45 2.17-1.27l10-17.5c0.69-1.19 0.27-2.72-0.94-3.4z m-15 0c-1.19-0.69-2.72-0.28-3.4 0.94l-10 17.5c-0.69 1.2-0.27 2.73 0.94 3.4 0.39 0.22 0.81 0.33 1.23 0.33 0.86 0 1.7-0.45 2.17-1.27l10-17.5c0.69-1.19 0.27-2.72-0.94-3.4zM335 140c-0.09 0-0.17 0.03-0.25 0.03 0.17-0.81 0.25-1.66 0.25-2.53 0-6.91-5.59-12.5-12.5-12.5-3.84 0-7.23 1.77-9.53 4.5C310.06 123.88 304.27 120 297.5 120 287.84 120 280 127.83 280 137.5c0 1.14 0.13 2.23 0.33 3.31C274.34 142.78 270 148.36 270 155c0 8.28 6.72 15 15 15h50c8.28 0 15-6.72 15-15s-6.72-15-15-15z"/><path fill="none" stroke="#000000" d=""/><path fill="none" stroke="#000000" d="M301.31 211.89C301.26 209.61 304.14 208.89 305.88 209.63 306.19 209.76 306.49 209.94 306.73 210.18 307.28 210.73 307.46 211.56 307.32 212.32 307.14 213.32 306.58 214.2 305.87 214.92L300.8 219.97 307.9 219.97"/><path fill="none" stroke="#000000" d="M310.93 209.35L316.51 209.35 313.47 213.38C314.85 213.38 316.07 213.46 316.72 214.89 317.07 215.66 317.08 216.56 316.87 217.38 316.77 217.81 316.6 218.23 316.33 218.59 315.31 219.99 313.03 220.41 311.58 219.67 311 219.37 310.32 218.71 309.92 217.91"/><path fill="none" stroke="#000000" d="M319.04 210.8C319.04 209.8 319.86 208.98 320.86 208.98 321.87 208.98 322.69 209.8 322.69 210.8 322.69 211.81 321.87 212.63 320.86 212.63 319.86 212.63 319.04 211.81 319.04 210.8Z"/><path fill="none" stroke="#000000" d="M333.14 211.84C332.66 210.81 331.69 209.67 330.42 209.42 329.02 209.14 327.46 209.32 326.44 210.31 325.31 211.42 324.79 212.94 324.75 214.42 324.71 215.99 325.21 217.77 326.47 218.92 327.9 220.21 330.14 220.23 331.7 219.1 332.33 218.64 332.83 218.02 333.14 217.35"/><path fill="none" stroke="#000000" d="M467.2 148.32c0.51-1.34 0.8-2.8 0.8-4.32 0-6.63-5.38-12-12-12-2.46 0-4.76 0.75-6.66 2.02C445.88 128.03 439.41 124 432 124c-11.05 0-20 8.95-20 20 0 0.34 0.01 0.68 0.03 1.01C405.02 147.47 400 154.15 400 162c0 9.94 8.06 18 18 18h46c8.84 0 16-7.16 16-16 0-7.74-5.5-14.2-12.8-15.68z"/><path fill="none" stroke="#000000" d=""/><path fill="none" stroke="#000000" d="M431.31 211.89C431.26 209.61 434.14 208.89 435.88 209.63 436.19 209.76 436.49 209.94 436.73 210.18 437.28 210.73 437.46 211.56 437.32 212.32 437.14 213.32 436.58 214.2 435.87 214.92L430.8 219.97 437.9 219.97"/><path fill="none" stroke="#000000" d="M440.93 209.35L446.51 209.35 443.47 213.38C444.85 213.38 446.07 213.46 446.72 214.89 447.07 215.66 447.08 216.56 446.87 217.38 446.77 217.81 446.6 218.23 446.33 218.59 445.31 219.99 443.03 220.41 441.58 219.67 441 219.37 440.32 218.71 439.92 217.91"/><path fill="none" stroke="#000000" d="M449.04 210.8C449.04 209.8 449.86 208.98 450.86 208.98 451.87 208.98 452.69 209.8 452.69 210.8 452.69 211.81 451.87 212.63 450.86 212.63 449.86 212.63 449.04 211.81 449.04 210.8Z"/><path fill="none" stroke="#000000" d="M463.14 211.84C462.66 210.81 461.69 209.67 460.42 209.42 459.02 209.14 457.46 209.32 456.44 210.31 455.31 211.42 454.79 212.94 454.75 214.42 454.71 215.99 455.21 217.77 456.47 218.92 457.9 220.21 460.14 220.23 461.7 219.1 462.33 218.64 462.83 218.02 463.14 217.35"/><path fill="none" stroke="#000000" d=""/><path fill="none" stroke="#000000" d="M211 326.63L211 339.83C212.1 339.83 213.2 339.83 214.3 339.83 215.84 339.83 217.76 340 218.92 338.76 219.11 338.55 219.26 338.32 219.38 338.07 219.88 337.07 219.88 335.84 219.44 334.81 219.33 334.54 219.18 334.29 218.99 334.07 217.87 332.77 215.93 332.92 214.39 332.92 213.26 332.92 212.13 332.92 211 332.92 211 332.92 216.36 332.94 216.6 332.89 217.38 332.73 218.16 332.49 218.76 331.96 219.37 331.43 219.74 330.62 219.75 329.8 219.75 328.99 219.4 328.18 218.81 327.63 217.53 326.46 215.76 326.63 214.17 326.63 213.11 326.63 212.06 326.63 211 326.63"/><path fill="none" stroke="#000000" d="M230.61 330.5L230.61 339.9"/><path fill="none" stroke="#000000" d="M230.61 332.52C229.55 331 227.66 329.92 225.35 330.8 223.87 331.37 223.01 332.54 222.63 334.07 222.12 336.1 223.15 338.36 224.91 339.41 227.13 340.72 229.49 339.51 230.61 337.89"/><path fill="none" stroke="#000000" d="M233.36 330.56L233.36 340.02"/><path fill="none" stroke="#000000" d="M233.36 334.47C233.61 333.71 233.89 332.87 234.33 332.18 234.69 331.6 235.17 331.13 235.74 330.86 236.7 330.41 237.98 330.56 238.53 331.66"/><path fill="none" stroke="#000000" d="M249.18 332.57C248.15 331.08 246.32 329.99 244.08 330.87 242.64 331.43 241.81 332.6 241.44 334.12 240.96 336.14 241.95 338.38 243.66 339.41 245.81 340.72 248.09 339.52 249.18 337.91"/><path fill="none" stroke="#000000" d="M259.57 337.84C258.82 339.08 257.55 339.9 256.11 339.9 253.81 339.9 251.94 337.81 251.94 335.23 251.94 332.66 253.81 330.57 256.11 330.57 258.42 330.57 260.29 332.66 260.29 335.23L252.46 335.23"/><path fill="none" stroke="#000000" d="M263.02 326.7L263.02 340.18"/><path fill="none" stroke="#000000" d="M268.56 330.91C269.09 330.68 269.67 330.55 270.27 330.55 272.72 330.55 274.71 332.67 274.71 335.29 274.71 337.9 272.72 340.02 270.27 340.02 267.83 340.02 265.84 337.9 265.84 335.29 265.84 333.81 266.47 332.5 267.45 331.63 267.79 331.34 268.16 331.1 268.56 330.91"/><path fill="none" stroke="#000000" d="M277.63 333.01C279.06 331.56 280.21 330.09 282.5 330.69 283.82 331.04 284.52 332.17 284.52 333.29L284.52 339.88"/><path fill="none" stroke="#000000" d="M277.44 330.65L277.44 339.88"/><path fill="none" stroke="#000000" d="M295.37 330.5L295.37 339.9"/><path fill="none" stroke="#000000" d="M295.37 332.52C294.31 331 292.42 329.92 290.11 330.8 288.63 331.37 287.77 332.54 287.39 334.07 286.88 336.1 287.91 338.36 289.67 339.41 291.89 340.72 294.25 339.51 295.37 337.89"/><path fill="none" stroke="#000000" d="M262 377.7c0.32-0.84 0.5-1.75 0.5-2.7 0-4.14-3.36-7.5-7.5-7.5-1.54 0-2.98 0.47-4.16 1.27C248.67 365.02 244.63 362.5 240 362.5c-6.91 0-12.5 5.59-12.5 12.5 0 0.21 0.01 0.42 0.02 0.63C223.14 377.17 220 381.34 220 386.25c0 6.21 5.04 11.25 11.25 11.25h28.75c5.52 0 10-4.48 10-10 0-4.84-3.44-8.88-8-9.8z"/><path fill="none" stroke="#000000" d=""/><path fill="none" stroke="#000000" d="M216.14 422.9C216.11 420.91 218.62 420.28 220.14 420.92 220.42 421.04 220.68 421.2 220.89 421.41 221.37 421.88 221.53 422.62 221.41 423.28 221.25 424.16 220.76 424.93 220.14 425.55L215.7 429.97 221.91 429.97"/><path fill="none" stroke="#000000" d="M229.05 422.08C228.21 420.4 225.55 420.24 224.54 421.9 223.62 423.43 223.55 425.62 223.82 427.33 223.92 427.95 224.08 428.58 224.48 429.06 224.67 429.3 224.91 429.5 225.17 429.65 226.14 430.21 227.43 430.13 228.32 429.46 229.2 428.79 229.63 427.57 229.36 426.49 229.09 425.41 228.13 424.54 227.03 424.37 226.14 424.23 225.2 424.56 224.57 425.2 224.07 425.69 223.94 426.31 223.72 426.96"/><path fill="none" stroke="#000000" d="M231.23 421.95C231.23 421.07 231.94 420.36 232.82 420.36 233.7 420.36 234.42 421.07 234.42 421.95 234.42 422.83 233.7 423.55 232.82 423.55 231.94 423.55 231.23 422.83 231.23 421.95Z"/><path fill="none" stroke="#000000" d="M243.56 422.86C243.14 421.96 242.29 420.96 241.18 420.74 239.96 420.5 238.6 420.66 237.7 421.52 236.71 422.49 236.26 423.82 236.23 425.12 236.19 426.49 236.63 428.05 237.73 429.05 238.98 430.19 240.94 430.2 242.3 429.21 242.86 428.81 243.29 428.27 243.56 427.68"/><path fill="none" stroke="#000000" d="M252.54 418.26L249.58 428.25"/><path fill="none" stroke="#000000" d="M258.89 422.9C258.85 420.91 261.36 420.28 262.89 420.92 263.16 421.04 263.42 421.2 263.63 421.41 264.11 421.88 264.27 422.62 264.15 423.28 263.99 424.16 263.5 424.93 262.88 425.55L258.44 429.97 264.65 429.97"/><path fill="none" stroke="#000000" d="M266.42 420.72L272.63 420.72 268.2 430.03"/><path fill="none" stroke="#000000" d="M274.4 421.95C274.4 421.07 275.12 420.36 276 420.36 276.88 420.36 277.59 421.07 277.59 421.95 277.59 422.83 276.88 423.55 276 423.55 275.12 423.55 274.4 422.83 274.4 421.95Z"/><path fill="none" stroke="#000000" d="M286.74 422.86C286.32 421.96 285.47 420.96 284.36 420.74 283.14 420.5 281.77 420.66 280.88 421.52 279.89 422.49 279.44 423.82 279.4 425.12 279.37 426.49 279.8 428.05 280.9 429.05 282.15 430.19 284.12 430.2 285.48 429.21 286.03 428.81 286.46 428.27 286.74 427.68"/><path fill="none" stroke="#000000" d=""/><path fill="none" stroke="#000000" d="M51 326.63L51 339.83C52.1 339.83 53.2 339.83 54.3 339.83 55.84 339.83 57.76 340 58.92 338.76 59.11 338.55 59.26 338.32 59.38 338.07 59.88 337.07 59.88 335.84 59.44 334.81 59.33 334.54 59.18 334.29 58.99 334.07 57.87 332.77 55.93 332.92 54.39 332.92 53.26 332.92 52.13 332.92 51 332.92 51 332.92 56.36 332.94 56.6 332.89 57.38 332.73 58.16 332.49 58.76 331.96 59.37 331.43 59.74 330.62 59.75 329.8 59.75 328.99 59.4 328.18 58.81 327.63 57.53 326.46 55.76 326.63 54.17 326.63 53.11 326.63 52.06 326.63 51 326.63"/><path fill="none" stroke="#000000" d="M70.13 337.84C69.38 339.08 68.11 339.9 66.67 339.9 64.37 339.9 62.5 337.81 62.5 335.23 62.5 332.66 64.37 330.57 66.67 330.57 68.98 330.57 70.85 332.66 70.85 335.23L63.02 335.23"/><path fill="none" stroke="#000000" d="M73.58 330.56L73.58 340.02"/><path fill="none" stroke="#000000" d="M73.58 334.47C73.83 333.71 74.11 332.87 74.55 332.18 74.91 331.6 75.39 331.13 75.96 330.86 76.92 330.41 78.2 330.56 78.75 331.66"/><path fill="none" stroke="#000000" d="M81.54 326.7L81.54 340.18"/><path fill="none" stroke="#000000" d="M84.83 330.38L84.83 340.09"/><path fill="none" stroke="#000000" d="M84.36 327.5C84.36 327.2 84.6 326.97 84.89 326.97 85.18 326.97 85.42 327.2 85.42 327.5 85.42 327.79 85.18 328.02 84.89 328.02 84.6 328.02 84.36 327.79 84.36 327.5Z"/><path fill="none" stroke="#000000" d="M88.41 333.01C89.84 331.56 90.99 330.09 93.28 330.69 94.6 331.04 95.3 332.17 95.3 333.29L95.3 339.88"/><path fill="none" stroke="#000000" d="M88.22 330.65L88.22 339.88"/><path fill="none" stroke="#000000" d="M85 375.63c-5.17 0-9.38 4.21-9.38 9.37s4.21 9.38 9.38 9.38 9.38-4.21 9.38-9.38-4.21-9.38-9.38-9.37z m24.06 7.86l-9.25-4.62 3.28-9.81c0.44-1.33-0.82-2.59-2.14-2.14l-9.81 3.28-4.63-9.26c-0.63-1.25-2.4-1.25-3.02 0l-4.62 9.25L69.05 366.91c-1.33-0.44-2.59 0.82-2.14 2.14l3.28 9.81-9.25 4.63c-1.25 0.63-1.25 2.4 0 3.02l9.25 4.62-3.28 9.82c-0.44 1.33 0.82 2.59 2.14 2.14l9.81-3.28 4.62 9.25c0.63 1.25 2.4 1.25 3.02 0l4.62-9.25 9.81 3.28c1.33 0.44 2.59-0.82 2.14-2.14l-3.28-9.81 9.25-4.62c1.27-0.63 1.27-2.41 0.02-3.03z m-15.22 10.35c-4.87 4.87-12.8 4.87-17.68 0-4.87-4.87-4.87-12.8 0-17.68 4.87-4.87 12.8-4.87 17.68 0 4.87 4.87 4.87 12.8 0 17.68z"/><path fill="none" stroke="#000000" d=""/><path fill="none" stroke="#000000" d="M56.14 422.9C56.11 420.91 58.62 420.28 60.14 420.92 60.42 421.04 60.68 421.2 60.89 421.41 61.37 421.88 61.53 422.62 61.41 423.28 61.25 424.16 60.76 424.93 60.14 425.55L55.7 429.97 61.91 429.97"/><path fill="none" stroke="#000000" d="M64.87 421.78C65.43 421.12 66.16 420.72 66.95 420.72 68.75 420.72 70.21 422.8 70.21 425.38 70.21 427.95 68.75 430.03 66.95 430.03 65.14 430.03 63.68 427.95 63.68 425.38 63.68 423.93 64.14 422.64 64.87 421.78"/><path fill="none" stroke="#000000" d="M71.98 421.95C71.98 421.07 72.7 420.36 73.58 420.36 74.46 420.36 75.17 421.07 75.17 421.95 75.17 422.83 74.46 423.55 73.58 423.55 72.7 423.55 71.98 422.83 71.98 421.95Z"/><path fill="none" stroke="#000000" d="M84.32 422.86C83.9 421.96 83.05 420.96 81.94 420.74 80.72 420.5 79.35 420.66 78.46 421.52 77.47 422.49 77.02 423.82 76.98 425.12 76.95 426.49 77.38 428.05 78.48 429.05 79.73 430.19 81.7 430.2 83.06 429.21 83.61 428.81 84.04 428.27 84.32 427.68"/><path fill="none" stroke="#000000" d="M93.3 418.26L90.34 428.25"/><path fill="none" stroke="#000000" d="M99.64 422.9C99.6 420.91 102.12 420.28 103.64 420.92 103.92 421.04 104.18 421.2 104.39 421.41 104.86 421.88 105.03 422.62 104.91 423.28 104.75 424.16 104.25 424.93 103.63 425.55L99.2 429.97 105.41 429.97"/><path fill="none" stroke="#000000" d="M110.11 420.61C109.25 420.61 108.35 421.02 108 421.55 107.64 422.09 107.53 422.71 107.86 423.27 108.24 423.92 109.01 424.24 109.74 424.42 110.48 424.6 111.25 424.68 111.92 425.03 112.74 425.47 113.32 426.31 113.44 427.22 113.54 427.97 113.32 428.77 112.76 429.28 112.22 429.76 111.46 429.91 110.74 429.96 109.61 430.03 108.33 429.86 107.63 428.97 107.01 428.18 107.06 427 107.59 426.15 108.12 425.3 109.06 424.77 110.04 424.54 110.51 424.43 110.99 424.39 111.46 424.26 111.92 424.13 112.38 423.9 112.67 423.51 113.1 422.93 113.17 422.03 112.7 421.48 112.16 420.85 110.92 420.61 110.11 420.61Z"/><path fill="none" stroke="#000000" d="M115.24 421.95C115.24 421.07 115.96 420.36 116.84 420.36 117.72 420.36 118.43 421.07 118.43 421.95 118.43 422.83 117.72 423.55 116.84 423.55 115.96 423.55 115.24 422.83 115.24 421.95Z"/><path fill="none" stroke="#000000" d="M127.58 422.86C127.16 421.96 126.31 420.96 125.2 420.74 123.98 420.5 122.61 420.66 121.72 421.52 120.73 422.49 120.28 423.82 120.24 425.12 120.21 426.49 120.64 428.05 121.74 429.05 122.99 430.19 124.96 430.2 126.32 429.21 126.87 428.81 127.3 428.27 127.58 427.68"/><path fill="none" stroke="#000000" d=""/><path fill="none" stroke="#000000" d="M371.08 339.91L371 326.71C372.1 326.71 373.2 326.71 374.3 326.71 375.88 326.71 377.78 326.57 378.97 327.71 380.56 329.23 379.75 332.23 377.6 332.89 376.95 333.08 376.26 333.24 375.54 333.24 374.04 333.24 372.98 333.22 371.57 333.22L375.44 333.32 379.66 339.94"/><path fill="none" stroke="#000000" d="M385.26 330.91C385.79 330.68 386.37 330.55 386.97 330.55 389.42 330.55 391.41 332.67 391.41 335.29 391.41 337.9 389.42 340.02 386.97 340.02 384.53 340.02 382.54 337.9 382.54 335.29 382.54 333.81 383.17 332.5 384.15 331.63 384.49 331.34 384.86 331.1 385.26 330.91"/><path fill="none" stroke="#000000" d="M394.14 330.65L394.14 339.88"/><path fill="none" stroke="#000000" d="M394.14 333.29C394.81 332.5 395.42 331.53 396.29 331.02 397.23 330.48 398.41 330.44 399.35 331.01 400.01 331.41 400.34 332.46 400.34 333.29L400.34 339.88"/><path fill="none" stroke="#000000" d="M400.34 333.29C401.57 331.84 402.8 330.09 404.78 330.69 405.93 331.04 406.53 332.17 406.53 333.29L406.53 339.88"/><path fill="none" stroke="#000000" d="M417.35 330.5L417.35 339.9"/><path fill="none" stroke="#000000" d="M417.35 332.52C416.29 331 414.4 329.92 412.09 330.8 410.61 331.37 409.75 332.54 409.37 334.07 408.86 336.1 409.89 338.36 411.65 339.41 413.87 340.72 416.23 339.51 417.35 337.89"/><path fill="none" stroke="#000000" d="M424.94 385.45c0.02-0.15 0.06-0.29 0.06-0.44 0-2.76-2.24-5-5-5-0.98 0-1.89 0.3-2.66 0.78-1.38-3.03-4.41-5.16-7.96-5.16-4.83 0-8.75 3.91-8.75 8.75 0 0.23 0.05 0.45 0.07 0.68-3.88 0.29-6.95 3.49-6.95 7.45 0 4.14 3.36 7.5 7.5 7.5h21.25c4.14 0 7.5-3.36 7.5-7.5 0-3.29-2.13-6.05-5.06-7.06z m-33.63-1.77c-3.41-3.41-3.41-8.96 0-12.37 3.41-3.41 8.96-3.41 12.38 0 0.76 0.76 1.32 1.63 1.74 2.56 0.77-0.29 1.57-0.47 2.4-0.59L410.16 366.34c0.31-0.93-0.57-1.8-1.5-1.5L401.8 367.13 398.55 360.66C398.13 359.78 396.88 359.78 396.44 360.66L393.2 367.13 386.34 364.84C385.41 364.53 384.53 365.41 384.84 366.34l2.29 6.86-6.47 3.24c-0.88 0.44-0.88 1.68 0 2.11l6.47 3.24-2.29 6.86c-0.31 0.93 0.57 1.8 1.5 1.5l5.94-1.98c0.48-0.97 1.09-1.85 1.85-2.62-1.02-0.42-1.98-1.05-2.82-1.87z m-0.37-6.19c0 3.19 2.29 5.84 5.3 6.43 0.63-0.37 1.27-0.69 1.97-0.91 0.42-3.46 2.42-6.45 5.27-8.21C402.45 372.53 400.16 370.94 397.5 370.94c-3.62 0-6.56 2.94-6.56 6.55z"/><path fill="none" stroke="#000000" d=""/><path fill="none" stroke="#000000" d="M376.14 422.9C376.11 420.91 378.62 420.28 380.14 420.92 380.42 421.04 380.68 421.2 380.89 421.41 381.37 421.88 381.53 422.62 381.41 423.28 381.25 424.16 380.76 424.93 380.14 425.55L375.7 429.97 381.91 429.97"/><path fill="none" stroke="#000000" d="M389.05 422.08C388.21 420.4 385.55 420.24 384.54 421.9 383.62 423.43 383.55 425.62 383.82 427.33 383.92 427.95 384.08 428.58 384.48 429.06 384.67 429.3 384.91 429.5 385.17 429.65 386.14 430.21 387.43 430.13 388.32 429.46 389.2 428.79 389.63 427.57 389.36 426.49 389.09 425.41 388.13 424.54 387.03 424.37 386.14 424.23 385.2 424.56 384.57 425.2 384.07 425.69 383.94 426.31 383.72 426.96"/><path fill="none" stroke="#000000" d="M391.23 421.95C391.23 421.07 391.94 420.36 392.82 420.36 393.7 420.36 394.42 421.07 394.42 421.95 394.42 422.83 393.7 423.55 392.82 423.55 391.94 423.55 391.23 422.83 391.23 421.95Z"/><path fill="none" stroke="#000000" d="M403.56 422.86C403.14 421.96 402.29 420.96 401.18 420.74 399.96 420.5 398.6 420.66 397.7 421.52 396.71 422.49 396.26 423.82 396.23 425.12 396.19 426.49 396.63 428.05 397.73 429.05 398.98 430.19 400.94 430.2 402.3 429.21 402.86 428.81 403.29 428.27 403.56 427.68"/><path fill="none" stroke="#000000" d="M412.54 418.26L409.58 428.25"/><path fill="none" stroke="#000000" d="M419.33 420.68L424.21 420.68 421.55 424.21C422.75 424.21 423.82 424.28 424.39 425.53 424.7 426.2 424.71 426.99 424.53 427.7 424.43 428.08 424.28 428.45 424.05 428.76 423.16 429.99 421.17 430.36 419.89 429.71 419.39 429.45 418.79 428.87 418.44 428.17"/><path fill="none" stroke="#000000" d="M426.87 422.9C426.83 420.91 429.34 420.28 430.87 420.92 431.14 421.04 431.4 421.2 431.61 421.41 432.09 421.88 432.25 422.62 432.13 423.28 431.97 424.16 431.48 424.93 430.86 425.55L426.42 429.97 432.63 429.97"/><path fill="none" stroke="#000000" d="M434.4 421.95C434.4 421.07 435.12 420.36 436 420.36 436.88 420.36 437.59 421.07 437.59 421.95 437.59 422.83 436.88 423.55 436 423.55 435.12 423.55 434.4 422.83 434.4 421.95Z"/><path fill="none" stroke="#000000" d="M446.74 422.86C446.32 421.96 445.47 420.96 444.36 420.74 443.14 420.5 441.77 420.66 440.88 421.52 439.89 422.49 439.44 423.82 439.4 425.12 439.37 426.49 439.8 428.05 440.9 429.05 442.15 430.19 444.12 430.2 445.48 429.21 446.03 428.81 446.46 428.27 446.74 427.68"/></g></svg>