<svg version="1.1" xmlns="http://www.w3.org/2000/svg" width="500" height="500"><g xmlns="http://www.w3.org/2000/svg" fill="none" fill-rule="nonzero" stroke="#000000" stroke-width="2" stroke-linecap="round" stroke-linejoin="round" stroke-miterlimit="10" stroke-dasharray="" stroke-dashoffset="0" font-family="none" font-weight="none" font-size="none" text-anchor="none" style="mix-blend-mode: normal"><path fill="none" stroke="#000000" d=""/><path fill="none" stroke="#000000" d="M232.05 20.36C234.21 20.36 236.71 20.39 239.01 20.39 240.12 20.39 241.19 20.12 242.17 19.78 245.48 18.65 246.72 14.16 244.28 11.55 242.45 9.6 239.53 9.83 237.11 9.83 235.42 9.83 233.73 9.83 232.05 9.83L232.05 29.43"/><path fill="none" stroke="#000000" d="M261.82 15.75L261.82 29.86"/><path fill="none" stroke="#000000" d="M261.82 18.77C260.22 16.51 257.4 14.87 253.93 16.2 251.7 17.05 250.42 18.81 249.85 21.11 249.09 24.15 250.63 27.54 253.28 29.11 256.6 31.08 260.14 29.27 261.82 26.83"/><path fill="none" stroke="#000000" d="M265.94 15.84L265.94 30.04"/><path fill="none" stroke="#000000" d="M265.94 21.7C266.33 20.56 266.74 19.3 267.4 18.27 267.94 17.41 268.66 16.69 269.52 16.29 270.96 15.62 272.87 15.84 273.7 17.49"/><path fill="none" stroke="#000000" d="M278.6 15.57L278.6 30.13"/><path fill="none" stroke="#000000" d="M277.88 11.24C277.88 10.81 278.24 10.45 278.68 10.45 279.12 10.45 279.47 10.81 279.47 11.24 279.47 11.68 279.12 12.04 278.68 12.04 278.24 12.04 277.88 11.68 277.88 11.24Z"/><path fill="none" stroke="#000000" d="M294.41 18.88C293.73 17.47 292.98 16.57 291.43 16.15 289.9 15.73 288.15 15.71 286.61 16.12 285.35 16.45 283.95 17.49 283.92 18.97 283.84 22.52 289.58 22.21 291.65 23.04 293.24 23.67 294.71 25.25 294.4 26.99 294 29.21 291.39 29.93 289.52 30.04 287.09 30.18 284.81 29.31 283.68 26.96"/><path fill="none" stroke="#000000" d="M178.24 48.88C177.55 47.47 176.81 46.57 175.25 46.15 173.72 45.73 171.97 45.71 170.44 46.12 169.17 46.45 167.78 47.49 167.75 48.97 167.67 52.52 173.41 52.21 175.48 53.04 177.07 53.67 178.53 55.25 178.22 56.99 177.82 59.21 175.22 59.93 173.35 60.04 170.92 60.18 168.64 59.31 167.5 56.96"/><path fill="none" stroke="#000000" d="M194.54 45.75L194.54 59.86"/><path fill="none" stroke="#000000" d="M194.54 48.77C192.95 46.51 190.13 44.87 186.66 46.2 184.43 47.05 183.14 48.81 182.57 51.11 181.82 54.15 183.35 57.54 186 59.11 189.32 61.08 192.87 59.27 194.54 56.83"/><path fill="none" stroke="#000000" d="M198.67 45.97L198.67 59.82"/><path fill="none" stroke="#000000" d="M198.67 49.93C199.68 48.75 200.59 47.29 201.89 46.53 203.3 45.71 205.08 45.66 206.48 46.51 207.48 47.12 207.96 48.69 207.96 49.93L207.96 59.82"/><path fill="none" stroke="#000000" d="M207.96 49.93C209.82 47.75 211.67 45.13 214.64 46.03 216.35 46.56 217.26 48.26 217.26 49.93L217.26 59.82"/><path fill="none" stroke="#000000" d="M232.77 56.76C231.65 58.62 229.74 59.85 227.58 59.85 224.12 59.85 221.32 56.72 221.32 52.85 221.32 48.99 224.12 45.85 227.58 45.85 231.04 45.85 233.84 48.99 233.84 52.85L222.1 52.85"/><path fill="none" stroke="#000000" d="M249.68 40.08L249.68 59.8"/><path fill="none" stroke="#000000" d="M249.73 48.92C248.18 46.69 245.45 45.09 242.09 46.39 239.92 47.23 238.68 48.96 238.13 51.21 237.39 54.2 238.88 57.53 241.45 59.07 244.67 61 248.1 59.22 249.73 56.83"/><path fill="none" stroke="#000000" d="M254.58 45.57L254.58 60.13"/><path fill="none" stroke="#000000" d="M253.87 41.24C253.87 40.81 254.22 40.45 254.66 40.45 255.1 40.45 255.46 40.81 255.46 41.24 255.46 41.68 255.1 42.04 254.66 42.04 254.22 42.04 253.87 41.68 253.87 41.24Z"/><path fill="none" stroke="#000000" d="M268.45 43.85C270.38 42.88 271.69 41.56 273.2 40.05L273.2 60.01"/><path fill="none" stroke="#000000" d="M288.41 39.94L278.9 39.94C278.9 39.94 277.95 48.5 277.95 48.5 277.97 48.07 279.45 47.39 279.79 47.24 280.52 46.92 281.32 46.72 282.13 46.66 283.76 46.56 285.67 46.7 287.14 47.46 289.8 48.84 290.92 52.71 289.98 55.44 289.1 58.04 286.7 59.64 284.02 59.9 281.4 60.16 277.54 59.17 277.09 56.09"/><path fill="none" stroke="#000000" d="M315.05 45.75L315.05 59.86"/><path fill="none" stroke="#000000" d="M315.05 48.77C313.46 46.51 310.64 44.87 307.17 46.2 304.94 47.05 303.65 48.81 303.08 51.11 302.33 54.15 303.86 57.54 306.51 59.11 309.83 61.08 313.38 59.27 315.05 56.83"/><path fill="none" stroke="#000000" d="M323.27 46.37C324.06 46.02 324.92 45.83 325.83 45.83 329.5 45.83 332.48 49.01 332.48 52.93 332.48 56.85 329.5 60.03 325.83 60.03 322.16 60.03 319.18 56.85 319.18 52.93 319.18 50.72 320.12 48.75 321.6 47.45 322.1 47.01 322.66 46.64 323.27 46.37"/><path fill="none" stroke="#000000" d="M336.58 45.67C336.58 45.67 336.58 55.14 336.58 55.16 336.58 57.18 337.25 58.12 337.78 58.75 338.93 60.13 341.95 59.94 342.88 59.62 345.17 58.85 346.01 57.15 347.32 55.79"/><path fill="none" stroke="#000000" d="M347.32 45.67L347.32 59.84"/><path fill="none" stroke="#000000" d="M345.03 42.58L341.77 39.33 338.5 42.58"/><path fill="none" stroke="#000000" d="M354.06 40.45C354.06 45.49 354.06 49.55 354.06 54.59 354.06 55.82 354.19 57.25 354.86 58.35 355.75 59.83 357.35 59.97 358.94 59.97"/><path fill="none" stroke="#000000" d="M351.13 46.3L357.96 46.3"/><path fill="none" stroke="#000000" d="M77.2 148.32c0.51-1.34 0.8-2.8 0.8-4.32 0-6.63-5.38-12-12-12-2.46 0-4.76 0.75-6.66 2.02C55.88 128.03 49.41 124 42 124c-11.05 0-20 8.95-20 20 0 0.34 0.01 0.68 0.03 1.01C15.03 147.47 10 154.15 10 162c0 9.94 8.06 18 18 18h46c8.84 0 16-7.16 16-16 0-7.74-5.5-14.2-12.8-15.68z"/><path fill="none" stroke="#000000" d=""/><path fill="none" stroke="#000000" d="M41.31 211.89C41.26 209.61 44.14 208.89 45.88 209.63 46.19 209.76 46.49 209.94 46.73 210.18 47.28 210.73 47.46 211.56 47.32 212.32 47.14 213.32 46.58 214.2 45.87 214.92L40.8 219.97 47.9 219.97"/><path fill="none" stroke="#000000" d="M54.99 219.96L54.99 209.31 49.92 216.41 57.52 216.41"/><path fill="none" stroke="#000000" d="M59.55 210.8C59.55 209.8 60.37 208.98 61.38 208.98 62.38 208.98 63.2 209.8 63.2 210.8 63.2 211.81 62.38 212.63 61.38 212.63 60.37 212.63 59.55 211.81 59.55 210.8Z"/><path fill="none" stroke="#000000" d="M73.65 211.84C73.17 210.81 72.2 209.67 70.93 209.42 69.54 209.14 67.97 209.32 66.96 210.31 65.82 211.42 65.3 212.94 65.27 214.42 65.23 215.99 65.72 217.77 66.98 218.92 68.41 220.21 70.65 220.23 72.21 219.1 72.84 218.64 73.34 218.02 73.65 217.35"/><path fill="none" stroke="#000000" d="M207.2 148.32c0.51-1.34 0.8-2.8 0.8-4.32 0-6.63-5.38-12-12-12-2.46 0-4.76 0.75-6.66 2.02C185.88 128.03 179.41 124 172 124c-11.05 0-20 8.95-20 20 0 0.34 0.01 0.68 0.03 1.01C145.03 147.47 140 154.15 140 162c0 9.94 8.06 18 18 18h46c8.84 0 16-7.16 16-16 0-7.74-5.5-14.2-12.8-15.68z"/><path fill="none" stroke="#000000" d=""/><path fill="none" stroke="#000000" d="M171.31 211.89C171.26 209.61 174.14 208.89 175.88 209.63 176.19 209.76 176.49 209.94 176.73 210.18 177.28 210.73 177.46 211.56 177.32 212.32 177.14 213.32 176.58 214.2 175.87 214.92L170.8 219.97 177.9 219.97"/><path fill="none" stroke="#000000" d="M183.27 209.27C182.29 209.27 181.26 209.73 180.85 210.35 180.45 210.96 180.32 211.67 180.7 212.31 181.14 213.05 182.01 213.42 182.85 213.62 183.69 213.83 184.58 213.92 185.34 214.33 186.27 214.82 186.94 215.78 187.08 216.83 187.19 217.68 186.94 218.6 186.3 219.17 185.68 219.73 184.81 219.89 183.99 219.95 182.7 220.04 181.23 219.84 180.43 218.83 179.73 217.92 179.78 216.57 180.39 215.6 181 214.63 182.07 214.02 183.19 213.76 183.73 213.64 184.28 213.58 184.81 213.44 185.34 213.29 185.87 213.03 186.19 212.59 186.69 211.92 186.77 210.89 186.23 210.26 185.61 209.55 184.2 209.27 183.27 209.27Z"/><path fill="none" stroke="#000000" d="M189.14 210.8C189.14 209.8 189.95 208.98 190.96 208.98 191.97 208.98 192.78 209.8 192.78 210.8 192.78 211.81 191.97 212.63 190.96 212.63 189.95 212.63 189.14 211.81 189.14 210.8Z"/><path fill="none" stroke="#000000" d="M203.24 211.84C202.76 210.81 201.78 209.67 200.51 209.42 199.12 209.14 197.56 209.32 196.54 210.31 195.41 211.42 194.89 212.94 194.85 214.42 194.81 215.99 195.31 217.77 196.57 218.92 197.99 220.21 200.24 220.23 201.79 219.1 202.43 218.64 202.92 218.02 203.24 217.35"/><path fill="none" stroke="#000000" d="M337.2 148.32c0.51-1.34 0.8-2.8 0.8-4.32 0-6.63-5.38-12-12-12-2.46 0-4.76 0.75-6.66 2.02C315.88 128.03 309.41 124 302 124c-11.05 0-20 8.95-20 20 0 0.34 0.01 0.68 0.03 1.01C275.02 147.47 270 154.15 270 162c0 9.94 8.06 18 18 18h46c8.84 0 16-7.16 16-16 0-7.74-5.5-14.2-12.8-15.68z"/><path fill="none" stroke="#000000" d=""/><path fill="none" stroke="#000000" d="M301.31 211.89C301.26 209.61 304.14 208.89 305.88 209.63 306.19 209.76 306.49 209.94 306.73 210.18 307.28 210.73 307.46 211.56 307.32 212.32 307.14 213.32 306.58 214.2 305.87 214.92L300.8 219.97 307.9 219.97"/><path fill="none" stroke="#000000" d="M316.45 212.88C316.2 213.65 316.04 214.37 315.44 214.94 314.77 215.58 313.83 215.94 312.91 215.87 311.62 215.77 310.43 214.82 310.05 213.58 309.67 212.34 310.12 210.89 311.14 210.08 311.99 209.4 313.22 209.21 314.26 209.58 315.58 210.04 316.15 211.18 316.35 212.49 316.61 214.2 316.48 215.97 315.97 217.62 315.48 219.18 314.32 220.12 312.61 219.95 311.56 219.85 310.87 219.4 310.37 218.46"/><path fill="none" stroke="#000000" d="M318.51 210.8C318.51 209.8 319.33 208.98 320.34 208.98 321.34 208.98 322.16 209.8 322.16 210.8 322.16 211.81 321.34 212.63 320.34 212.63 319.33 212.63 318.51 211.81 318.51 210.8Z"/><path fill="none" stroke="#000000" d="M332.61 211.84C332.13 210.81 331.16 209.67 329.89 209.42 328.5 209.14 326.93 209.32 325.92 210.31 324.78 211.42 324.26 212.94 324.23 214.42 324.19 215.99 324.68 217.77 325.94 218.92 327.37 220.21 329.61 220.23 331.17 219.1 331.8 218.64 332.3 218.02 332.61 217.35"/><path fill="none" stroke="#000000" d="M467.2 148.32c0.51-1.34 0.8-2.8 0.8-4.32 0-6.63-5.38-12-12-12-2.46 0-4.76 0.75-6.66 2.02C445.88 128.03 439.41 124 432 124c-11.05 0-20 8.95-20 20 0 0.34 0.01 0.68 0.03 1.01C405.02 147.47 400 154.15 400 162c0 9.94 8.06 18 18 18h46c8.84 0 16-7.16 16-16 0-7.74-5.5-14.2-12.8-15.68z"/><path fill="none" stroke="#000000" d=""/><path fill="none" stroke="#000000" d="M431.31 211.89C431.26 209.61 434.14 208.89 435.88 209.63 436.19 209.76 436.49 209.94 436.73 210.18 437.28 210.73 437.46 211.56 437.32 212.32 437.14 213.32 436.58 214.2 435.87 214.92L430.8 219.97 437.9 219.97"/><path fill="none" stroke="#000000" d="M446.05 210.95C445.09 209.03 442.06 208.85 440.91 210.75 439.85 212.49 439.77 214.99 440.08 216.95 440.19 217.65 440.38 218.37 440.83 218.93 441.05 219.2 441.32 219.43 441.63 219.6 442.73 220.24 444.2 220.14 445.22 219.38 446.23 218.61 446.72 217.22 446.41 215.99 446.1 214.76 445.01 213.76 443.75 213.57 442.74 213.41 441.66 213.79 440.93 214.51 440.37 215.07 440.21 215.79 439.97 216.53"/><path fill="none" stroke="#000000" d="M448.54 210.8C448.54 209.8 449.36 208.98 450.37 208.98 451.37 208.98 452.19 209.8 452.19 210.8 452.19 211.81 451.37 212.63 450.37 212.63 449.36 212.63 448.54 211.81 448.54 210.8Z"/><path fill="none" stroke="#000000" d="M462.65 211.84C462.16 210.81 461.19 209.67 459.92 209.42 458.53 209.14 456.97 209.32 455.95 210.31 454.81 211.42 454.3 212.94 454.26 214.42 454.22 215.99 454.72 217.77 455.97 218.92 457.4 220.21 459.65 220.23 461.2 219.1 461.83 218.64 462.33 218.02 462.65 217.35"/><path fill="none" stroke="#000000" d=""/><path fill="none" stroke="#000000" d="M167.24 270.08L167.24 289.8"/><path fill="none" stroke="#000000" d="M167.29 278.92C165.74 276.69 163.01 275.09 159.65 276.39 157.48 277.23 156.24 278.96 155.69 281.21 154.95 284.2 156.44 287.53 159.01 289.07 162.23 291 165.66 289.22 167.29 286.83"/><path fill="none" stroke="#000000" d="M172.14 275.57L172.14 290.13"/><path fill="none" stroke="#000000" d="M171.43 271.24C171.43 270.81 171.78 270.45 172.22 270.45 172.66 270.45 173.02 270.81 173.02 271.24 173.02 271.68 172.66 272.04 172.22 272.04 171.78 272.04 171.43 271.68 171.43 271.24Z"/><path fill="none" stroke="#000000" d="M177.22 275.97L177.22 289.82"/><path fill="none" stroke="#000000" d="M177.22 279.93C178.23 278.75 179.14 277.29 180.44 276.53 181.85 275.71 183.63 275.66 185.03 276.51 186.03 277.12 186.51 278.69 186.51 279.93L186.51 289.82"/><path fill="none" stroke="#000000" d="M186.51 279.93C188.37 277.75 190.22 275.13 193.19 276.03 194.9 276.56 195.81 278.26 195.81 279.93L195.81 289.82"/><path fill="none" stroke="#000000" d="M212.03 275.75L212.03 289.86"/><path fill="none" stroke="#000000" d="M212.03 278.77C210.44 276.51 207.62 274.87 204.15 276.2 201.92 277.05 200.63 278.81 200.06 281.11 199.31 284.15 200.84 287.54 203.49 289.11 206.81 291.08 210.36 289.27 212.03 286.83"/><path fill="none" stroke="#000000" d="M216.45 279.51C218.59 277.33 220.32 275.13 223.75 276.03 225.73 276.56 226.78 278.26 226.78 279.93L226.78 289.82"/><path fill="none" stroke="#000000" d="M216.16 275.97L216.16 289.82"/><path fill="none" stroke="#000000" d="M242.68 278.86C241.13 276.61 238.4 274.99 235.04 276.31 232.87 277.15 231.63 278.9 231.08 281.18 230.34 284.2 231.83 287.56 234.4 289.12 237.62 291.07 241.05 289.28 242.68 286.86"/><path fill="none" stroke="#000000" d="M246.82 270.11L246.82 289.97"/><path fill="none" stroke="#000000" d="M246.82 280.21C247.87 279.15 248.78 277.92 250.02 277.08 251.83 275.87 254.34 275.85 256.09 277.15 257.07 277.87 257.38 279.34 257.5 280.49 257.66 281.93 257.56 283.39 257.56 284.83 257.56 286.54 257.56 288.25 257.56 289.97"/><path fill="none" stroke="#000000" d="M273.18 286.76C272.06 288.62 270.15 289.85 267.99 289.85 264.53 289.85 261.73 286.72 261.73 282.85 261.73 278.99 264.53 275.85 267.99 275.85 271.45 275.85 274.25 278.99 274.25 282.85L262.51 282.85"/><path fill="none" stroke="#000000" d="M287.14 273.85C289.07 272.88 290.38 271.56 291.89 270.05L291.89 290.01"/><path fill="none" stroke="#000000" d="M307.28 273.03C305.48 269.43 299.79 269.08 297.63 272.65 295.65 275.92 295.49 280.61 296.08 284.28 296.29 285.6 296.65 286.95 297.48 287.99 297.9 288.5 298.41 288.93 298.98 289.25 301.05 290.44 303.81 290.27 305.71 288.84 307.61 287.4 308.53 284.78 307.95 282.48 307.37 280.17 305.32 278.3 302.97 277.94 301.06 277.64 299.04 278.35 297.68 279.71 296.62 280.76 296.33 282.1 295.87 283.49"/><path fill="none" stroke="#000000" d="M332.9 275.75L332.9 289.86"/><path fill="none" stroke="#000000" d="M332.9 278.77C331.31 276.51 328.49 274.87 325.02 276.2 322.79 277.05 321.5 278.81 320.93 281.11 320.18 284.15 321.71 287.54 324.36 289.11 327.68 291.08 331.23 289.27 332.9 286.83"/><path fill="none" stroke="#000000" d="M341.12 276.37C341.91 276.02 342.77 275.83 343.68 275.83 347.35 275.83 350.33 279.01 350.33 282.93 350.33 286.85 347.35 290.03 343.68 290.03 340.01 290.03 337.03 286.85 337.03 282.93 337.03 280.72 337.97 278.75 339.45 277.45 339.95 277.01 340.51 276.64 341.12 276.37"/><path fill="none" stroke="#000000" d="M354.43 275.67C354.43 275.67 354.43 285.14 354.43 285.16 354.43 287.18 355.1 288.12 355.63 288.75 356.78 290.13 359.8 289.94 360.73 289.62 363.02 288.85 363.86 287.15 365.17 285.79"/><path fill="none" stroke="#000000" d="M365.17 275.67L365.17 289.84"/><path fill="none" stroke="#000000" d="M362.88 272.58L359.62 269.33 356.35 272.58"/><path fill="none" stroke="#000000" d="M371.91 270.45C371.91 275.49 371.91 279.55 371.91 284.59 371.91 285.82 372.04 287.25 372.71 288.35 373.6 289.83 375.2 289.97 376.79 289.97"/><path fill="none" stroke="#000000" d="M368.98 276.3L375.81 276.3"/><path fill="none" stroke="#000000" d="M38.73 377.83c-1.19-0.69-2.72-0.28-3.4 0.94l-10 17.5c-0.69 1.2-0.27 2.73 0.94 3.4 0.39 0.22 0.81 0.33 1.23 0.33 0.86 0 1.7-0.45 2.17-1.27l10-17.5c0.69-1.19 0.27-2.72-0.94-3.4z m15 0c-1.19-0.69-2.72-0.28-3.4 0.94l-10 17.5c-0.69 1.2-0.27 2.73 0.94 3.4 0.39 0.22 0.81 0.33 1.23 0.33 0.86 0 1.7-0.45 2.17-1.27l10-17.5c0.69-1.19 0.27-2.72-0.94-3.4z m-30 0c-1.19-0.69-2.72-0.28-3.4 0.94l-10 17.5c-0.69 1.2-0.27 2.73 0.94 3.4 0.39 0.22 0.81 0.33 1.23 0.33 0.86 0 1.7-0.45 2.17-1.27l10-17.5c0.69-1.19 0.27-2.72-0.94-3.4z m60 0c-1.19-0.69-2.72-0.28-3.4 0.94l-10 17.5c-0.69 1.2-0.27 2.73 0.94 3.4 0.39 0.22 0.81 0.33 1.23 0.33 0.86 0 1.7-0.45 2.17-1.27l10-17.5c0.69-1.19 0.27-2.72-0.94-3.4z m-15 0c-1.19-0.69-2.72-0.28-3.4 0.94l-10 17.5c-0.69 1.2-0.27 2.73 0.94 3.4 0.39 0.22 0.81 0.33 1.23 0.33 0.86 0 1.7-0.45 2.17-1.27l10-17.5c0.69-1.19 0.27-2.72-0.94-3.4zM75 340c-0.09 0-0.17 0.03-0.25 0.03 0.17-0.81 0.25-1.66 0.25-2.53 0-6.91-5.59-12.5-12.5-12.5-3.84 0-7.23 1.77-9.53 4.5C50.06 323.88 44.27 320 37.5 320 27.84 320 20 327.83 20 337.5c0 1.14 0.13 2.23 0.33 3.31C14.34 342.78 10 348.36 10 355c0 8.28 6.72 15 15 15h50c8.28 0 15-6.72 15-15s-6.72-15-15-15z"/><path fill="none" stroke="#000000" d=""/><path fill="none" stroke="#000000" d="M41.31 411.89C41.26 409.61 44.14 408.89 45.88 409.63 46.19 409.76 46.49 409.94 46.73 410.18 47.28 410.73 47.46 411.56 47.32 412.32 47.14 413.32 46.58 414.2 45.87 414.92L40.8 419.97 47.9 419.97"/><path fill="none" stroke="#000000" d="M55.96 409.3L50.89 409.3C50.89 409.3 50.38 413.87 50.38 413.87 50.39 413.64 51.18 413.28 51.36 413.2 51.75 413.02 52.18 412.92 52.61 412.89 53.48 412.83 54.49 412.91 55.28 413.31 56.7 414.05 57.3 416.11 56.8 417.57 56.32 418.95 55.04 419.81 53.62 419.95 52.22 420.08 50.16 419.56 49.92 417.91"/><path fill="none" stroke="#000000" d="M58.99 410.8C58.99 409.8 59.81 408.98 60.82 408.98 61.82 408.98 62.64 409.8 62.64 410.8 62.64 411.81 61.82 412.63 60.82 412.63 59.81 412.63 58.99 411.81 58.99 410.8Z"/><path fill="none" stroke="#000000" d="M73.09 411.84C72.61 410.81 71.64 409.67 70.37 409.42 68.98 409.14 67.41 409.32 66.4 410.31 65.26 411.42 64.74 412.94 64.71 414.42 64.67 415.99 65.16 417.77 66.42 418.92 67.85 420.21 70.09 420.23 71.65 419.1 72.28 418.64 72.78 418.02 73.09 417.35"/><path fill="none" stroke="#000000" d="M168.73 377.83c-1.19-0.69-2.72-0.28-3.4 0.94l-10 17.5c-0.69 1.2-0.27 2.73 0.94 3.4 0.39 0.22 0.81 0.33 1.23 0.33 0.86 0 1.7-0.45 2.17-1.27l10-17.5c0.69-1.19 0.27-2.72-0.94-3.4z m15 0c-1.19-0.69-2.72-0.28-3.4 0.94l-10 17.5c-0.69 1.2-0.27 2.73 0.94 3.4 0.39 0.22 0.81 0.33 1.23 0.33 0.86 0 1.7-0.45 2.17-1.27l10-17.5c0.69-1.19 0.27-2.72-0.94-3.4z m-30 0c-1.19-0.69-2.72-0.28-3.4 0.94l-10 17.5c-0.69 1.2-0.27 2.73 0.94 3.4 0.39 0.22 0.81 0.33 1.23 0.33 0.86 0 1.7-0.45 2.17-1.27l10-17.5c0.69-1.19 0.27-2.72-0.94-3.4z m60 0c-1.19-0.69-2.72-0.28-3.4 0.94l-10 17.5c-0.69 1.2-0.27 2.73 0.94 3.4 0.39 0.22 0.81 0.33 1.23 0.33 0.86 0 1.7-0.45 2.17-1.27l10-17.5c0.69-1.19 0.27-2.72-0.94-3.4z m-15 0c-1.19-0.69-2.72-0.28-3.4 0.94l-10 17.5c-0.69 1.2-0.27 2.73 0.94 3.4 0.39 0.22 0.81 0.33 1.23 0.33 0.86 0 1.7-0.45 2.17-1.27l10-17.5c0.69-1.19 0.27-2.72-0.94-3.4zM205 340c-0.09 0-0.17 0.03-0.25 0.03 0.17-0.81 0.25-1.66 0.25-2.53 0-6.91-5.59-12.5-12.5-12.5-3.84 0-7.23 1.77-9.53 4.5C180.06 323.88 174.27 320 167.5 320 157.84 320 150 327.83 150 337.5c0 1.14 0.13 2.23 0.33 3.31C144.34 342.78 140 348.36 140 355c0 8.28 6.72 15 15 15h50c8.28 0 15-6.72 15-15s-6.72-15-15-15z"/><path fill="none" stroke="#000000" d=""/><path fill="none" stroke="#000000" d="M171.31 411.89C171.26 409.61 174.14 408.89 175.88 409.63 176.19 409.76 176.49 409.94 176.73 410.18 177.28 410.73 177.46 411.56 177.32 412.32 177.14 413.32 176.58 414.2 175.87 414.92L170.8 419.97 177.9 419.97"/><path fill="none" stroke="#000000" d="M179.92 409.39L187.02 409.39 181.95 420.04"/><path fill="none" stroke="#000000" d="M189.04 410.8C189.04 409.8 189.86 408.98 190.86 408.98 191.87 408.98 192.69 409.8 192.69 410.8 192.69 411.81 191.87 412.63 190.86 412.63 189.86 412.63 189.04 411.81 189.04 410.8Z"/><path fill="none" stroke="#000000" d="M203.14 411.84C202.66 410.81 201.69 409.67 200.42 409.42 199.02 409.14 197.46 409.32 196.44 410.31 195.31 411.42 194.79 412.94 194.75 414.42 194.71 415.99 195.21 417.77 196.47 418.92 197.9 420.21 200.14 420.23 201.7 419.1 202.33 418.64 202.83 418.02 203.14 417.35"/><path fill="none" stroke="#000000" d="M337.2 348.32c0.51-1.34 0.8-2.8 0.8-4.32 0-6.63-5.38-12-12-12-2.46 0-4.76 0.75-6.66 2.02C315.88 328.02 309.41 324 302 324c-11.05 0-20 8.95-20 20 0 0.34 0.01 0.68 0.03 1.01C275.02 347.48 270 354.15 270 362c0 9.94 8.06 18 18 18h46c8.84 0 16-7.16 16-16 0-7.74-5.5-14.2-12.8-15.68z"/><path fill="none" stroke="#000000" d=""/><path fill="none" stroke="#000000" d="M301.31 411.89C301.26 409.61 304.14 408.89 305.88 409.63 306.19 409.76 306.49 409.94 306.73 410.18 307.28 410.73 307.46 411.56 307.32 412.32 307.14 413.32 306.58 414.2 305.87 414.92L300.8 419.97 307.9 419.97"/><path fill="none" stroke="#000000" d="M316.05 410.95C315.09 409.03 312.06 408.85 310.91 410.75 309.85 412.49 309.77 414.99 310.08 416.95 310.19 417.65 310.38 418.37 310.83 418.93 311.05 419.2 311.32 419.43 311.63 419.6 312.73 420.24 314.2 420.14 315.22 419.38 316.23 418.61 316.72 417.22 316.41 415.99 316.1 414.76 315.01 413.76 313.75 413.57 312.74 413.41 311.66 413.79 310.93 414.51 310.37 415.07 310.21 415.79 309.97 416.53"/><path fill="none" stroke="#000000" d="M318.54 410.8C318.54 409.8 319.36 408.98 320.37 408.98 321.37 408.98 322.19 409.8 322.19 410.8 322.19 411.81 321.37 412.63 320.37 412.63 319.36 412.63 318.54 411.81 318.54 410.8Z"/><path fill="none" stroke="#000000" d="M332.65 411.84C332.16 410.81 331.19 409.67 329.92 409.42 328.53 409.14 326.97 409.32 325.95 410.31 324.81 411.42 324.3 412.94 324.26 414.42 324.22 415.99 324.72 417.77 325.97 418.92 327.4 420.21 329.65 420.23 331.2 419.1 331.83 418.64 332.33 418.02 332.65 417.35"/><path fill="none" stroke="#000000" d="M428.73 377.83c-1.19-0.69-2.72-0.28-3.4 0.94l-10 17.5c-0.69 1.2-0.27 2.73 0.94 3.4 0.39 0.22 0.81 0.33 1.23 0.33 0.86 0 1.7-0.45 2.17-1.27l10-17.5c0.69-1.19 0.27-2.72-0.94-3.4z m15 0c-1.19-0.69-2.72-0.28-3.4 0.94l-10 17.5c-0.69 1.2-0.27 2.73 0.94 3.4 0.39 0.22 0.81 0.33 1.23 0.33 0.86 0 1.7-0.45 2.17-1.27l10-17.5c0.69-1.19 0.27-2.72-0.94-3.4z m-30 0c-1.19-0.69-2.72-0.28-3.4 0.94l-10 17.5c-0.69 1.2-0.27 2.73 0.94 3.4 0.39 0.22 0.81 0.33 1.23 0.33 0.86 0 1.7-0.45 2.17-1.27l10-17.5c0.69-1.19 0.27-2.72-0.94-3.4z m60 0c-1.19-0.69-2.72-0.28-3.4 0.94l-10 17.5c-0.69 1.2-0.27 2.73 0.94 3.4 0.39 0.22 0.81 0.33 1.23 0.33 0.86 0 1.7-0.45 2.17-1.27l10-17.5c0.69-1.19 0.27-2.72-0.94-3.4z m-15 0c-1.19-0.69-2.72-0.28-3.4 0.94l-10 17.5c-0.69 1.2-0.27 2.73 0.94 3.4 0.39 0.22 0.81 0.33 1.23 0.33 0.86 0 1.7-0.45 2.17-1.27l10-17.5c0.69-1.19 0.27-2.72-0.94-3.4zM465 340c-0.09 0-0.17 0.03-0.25 0.03 0.17-0.81 0.25-1.66 0.25-2.53 0-6.91-5.59-12.5-12.5-12.5-3.84 0-7.23 1.77-9.53 4.5C440.06 323.88 434.27 320 427.5 320 417.84 320 410 327.83 410 337.5c0 1.14 0.13 2.23 0.33 3.31C404.34 342.78 400 348.36 400 355c0 8.28 6.72 15 15 15h50c8.28 0 15-6.72 15-15s-6.72-15-15-15z"/><path fill="none" stroke="#000000" d=""/><path fill="none" stroke="#000000" d="M431.31 411.89C431.26 409.61 434.14 408.89 435.88 409.63 436.19 409.76 436.49 409.94 436.73 410.18 437.28 410.73 437.46 411.56 437.32 412.32 437.14 413.32 436.58 414.2 435.87 414.92L430.8 419.97 437.9 419.97"/><path fill="none" stroke="#000000" d="M444.99 419.96L444.99 409.31 439.92 416.41 447.52 416.41"/><path fill="none" stroke="#000000" d="M449.55 410.8C449.55 409.8 450.37 408.98 451.38 408.98 452.38 408.98 453.2 409.8 453.2 410.8 453.2 411.81 452.38 412.63 451.38 412.63 450.37 412.63 449.55 411.81 449.55 410.8Z"/><path fill="none" stroke="#000000" d="M463.65 411.84C463.17 410.81 462.2 409.67 460.93 409.42 459.54 409.14 457.97 409.32 456.96 410.31 455.82 411.42 455.3 412.94 455.27 414.42 455.23 415.99 455.72 417.77 456.98 418.92 458.41 420.21 460.65 420.23 462.21 419.1 462.84 418.64 463.34 418.02 463.65 417.35"/></g></svg>